<svg version="1.1" xmlns="http://www.w3.org/2000/svg" viewBox="0 0 1426.629519818276 619.1171875" width="1426.629519818276" height="619.1171875">
  <!-- svg-source:excalidraw -->
  
  <defs>
    <style>
      @font-face {
        font-family: "Virgil";
        src: url("https://excalidraw.com/Virgil.woff2");
      }
      @font-face {
        font-family: "Cascadia";
        src: url("https://excalidraw.com/Cascadia.woff2");
      }
    </style>
  </defs>
  <rect x="0" y="0" width="1426.629519818276" height="619.1171875" fill="#ffffff"></rect><g stroke-linecap="round" transform="translate(22.473269818276208 10) rotate(0 109.33203125 120.994140625)"><path d="M1.17 -1.18 C68.94 -0.92, 139.2 2.06, 219.02 1.73 M0.48 0.43 C69.23 -0.81, 136.86 -0.36, 219.22 0.14 M217.45 1.15 C217 76.51, 217.25 153.6, 218.58 240.91 M219.48 0.21 C219.8 77.66, 219.93 154.51, 219.08 242.06 M218.47 240.96 C154.49 241.45, 93.82 240.2, -1.72 242.47 M218.61 241.81 C160.37 242.62, 100.93 242.44, -0.76 241.39 M-0.56 242.45 C0.21 151.95, 1.43 66.03, -0.57 -0.86 M0.44 242.12 C-0.86 186.73, -0.34 129.82, 0.78 0.26" stroke="#000000" stroke-width="1" fill="none"></path></g><g transform="translate(99.80139481827621 26.41796875) rotate(0 28.5 25)"><text x="28.5" y="18" font-family="Virgil, Segoe UI Emoji" font-size="20px" fill="#000000" text-anchor="middle" style="white-space: pre;" direction="ltr">Login </text><text x="28.5" y="43" font-family="Virgil, Segoe UI Emoji" font-size="20px" fill="#000000" text-anchor="middle" style="white-space: pre;" direction="ltr">Page</text></g><g stroke-linecap="round" transform="translate(13.016238568276208 404.8515625) rotate(0 109.33203125 102.1328125)"><path d="M-1.2 0.48 C77.44 1.9, 154.66 0.34, 219.91 0.47 M-0.41 0.43 C53.39 -0.25, 107.93 -0.05, 218.63 -0.06 M219.4 1.49 C218.32 55.27, 220.53 108.19, 219.03 202.86 M219.18 -0.77 C217.92 76.03, 218.29 152.3, 218.21 203.69 M218.58 204.85 C145.35 202.62, 75.65 203.82, -0.88 202.55 M218.02 204.21 C136.52 206.97, 54.6 206.08, 0.58 203.56 M1.31 203.04 C-1.17 149.79, -1.97 94.08, 1.05 0.89 M-0.24 204.95 C-0.04 140.57, -0.32 79.12, -0.56 0.76" stroke="#000000" stroke-width="1" fill="none"></path></g><g transform="translate(78.34436356827621 413.49609375) rotate(0 45.5 25)"><text x="45.5" y="18" font-family="Virgil, Segoe UI Emoji" font-size="20px" fill="#000000" text-anchor="middle" style="white-space: pre;" direction="ltr">Register </text><text x="45.5" y="43" font-family="Virgil, Segoe UI Emoji" font-size="20px" fill="#000000" text-anchor="middle" style="white-space: pre;" direction="ltr">Page</text></g><g stroke-linecap="round" transform="translate(387.8248323182762 175.03125) rotate(0 278.51171875 197.748046875)"><path d="M0.46 -0.12 C163.53 -0.4, 327.84 -1.06, 556.94 0.4 M-0.17 -0.33 C177.76 -1.81, 354.93 -2.11, 556.88 -0.39 M556.51 0.28 C558.05 91.81, 558.82 182.16, 557.46 394.54 M556.6 0.03 C557.46 128.55, 557.24 257.61, 557.15 396.05 M556.33 396 C435.14 394.1, 314.24 394.05, 0.39 395.68 M556.8 395.69 C397.24 396.36, 238.06 395.92, 0.28 395.54 M0.05 395.79 C0.06 248.37, -0.01 101.81, -1.09 0.45 M0.5 395.49 C1.5 276.07, 1.89 157.81, 0.39 0.24" stroke="#000000" stroke-width="1" fill="none"></path></g><g transform="translate(535.3951448182762 184.03515625) rotate(0 34 25)"><text x="0" y="18" font-family="Virgil, Segoe UI Emoji" font-size="20px" fill="#000000" text-anchor="start" style="white-space: pre;" direction="ltr">Auth</text><text x="0" y="43" font-family="Virgil, Segoe UI Emoji" font-size="20px" fill="#000000" text-anchor="start" style="white-space: pre;" direction="ltr">Service</text></g><g stroke-linecap="round" transform="translate(1064.559207318276 234.4609375) rotate(0 176.03515625 101.90625)"><path d="M32.64 42.95 C32.64 42.95, 32.64 42.95, 32.64 42.95 M32.64 42.95 C32.64 42.95, 32.64 42.95, 32.64 42.95 M8.79 72.95 C23.52 61.24, 34.36 45.33, 42.07 38.3 M10.01 74.91 C23.27 59.16, 35.51 45.39, 43.49 36.43 M7.27 83.93 C20.27 67.26, 34.48 54.15, 55.16 29.55 M7.2 83.04 C24.86 64.26, 42.08 43.18, 54.36 29.31 M5.51 92.56 C18.1 77.8, 35.36 58.26, 63.05 25.83 M5.94 92.76 C24.16 69.88, 42.82 49.77, 64.46 25.24 M-0.31 106.19 C19.13 84.59, 36.2 59.88, 73.46 19.18 M-1.24 104.68 C26.28 75.61, 51.34 46.82, 74.33 18.27 M1.23 110.23 C26.47 81.73, 50.96 50.29, 81.85 15.29 M0.19 109.8 C29.13 78.67, 54.32 49.28, 81.3 16.62 M1.03 114.36 C33.37 78.62, 62.98 47.38, 88.17 16.12 M2.08 113.15 C27.01 84.58, 51.84 57.35, 88.3 15.75 M3.33 119.53 C41.91 75.55, 77.51 33, 95.42 11.9 M5.44 117.22 C31.33 87.69, 56.48 56.82, 95.41 13.87 M6.15 123.65 C30.67 91.03, 57.53 60.51, 103.16 12.04 M5.93 121.26 C34.4 89.7, 61.42 57.17, 103.44 11.26 M7.63 124.35 C31.32 96.63, 58.37 65.43, 107.89 9.82 M8.22 126.32 C31.94 98.71, 56.52 69.78, 109.3 8.52 M10.29 131.61 C41.85 94.26, 73.57 56.49, 117.3 9.1 M9.33 129.52 C39.74 94.26, 70.81 59.72, 116.35 7.62 M10.72 135.25 C40.33 101.79, 70.34 66.4, 122.64 4.98 M10.29 135.86 C46.42 96.46, 81.56 55.83, 123.7 6.15 M11.18 137.8 C41.8 102.93, 74.06 71.24, 127.01 4.74 M12.82 138.69 C49.82 95.82, 85.62 53.68, 128.64 6.68 M16.64 139.24 C61.97 87.16, 107.27 34.59, 132.28 5.02 M16.34 140.84 C60.66 88.16, 106.72 35.27, 134.52 5.39 M17.74 142.69 C49.48 110.47, 80.3 72.56, 141.52 3.55 M20.03 143.78 C49.61 106.65, 80.59 72.45, 139.2 4.27 M21.06 149.07 C48.29 119.51, 74.32 89.49, 147.86 2.53 M21.11 146.8 C53.41 110.25, 85.94 73.9, 147.03 4.04 M23.48 151.54 C53.65 116.73, 81.7 83.4, 153.59 3.12 M24.19 148.87 C63.93 106.65, 100.98 62.37, 151.89 3.02 M26.47 150.71 C61.14 114.31, 92.61 76.39, 158.36 1.58 M27.63 152.32 C59.64 112.98, 92.85 75.74, 156.45 2.77 M30.36 156.93 C59.1 124.2, 84.62 91.41, 162.91 2.97 M29.02 156.66 C66.18 113.54, 104.22 70.85, 163.84 2.33 M34.68 159.25 C78.12 107.01, 121.85 55.15, 169.81 1.33 M32.93 158.01 C63.25 125.09, 92.86 91.69, 168.14 1.53 M35.18 161.78 C69.68 126.39, 97.61 90.89, 174.58 1.53 M35.42 160.58 C84.22 106.35, 132.78 52.11, 173.59 1.98 M37.96 164.82 C90.65 103.31, 145.09 43.1, 180.56 1.23 M38.91 164.75 C86.26 107.27, 134.86 52.05, 179.16 1.89 M40.65 166.93 C97.97 103.28, 152.5 38.68, 186.62 0.62 M41.15 166.79 C81.89 120.75, 121.52 74.29, 186.03 0.62 M45.2 167.61 C97.16 109.18, 147.01 49.06, 190.39 0.19 M44.55 168.92 C92.66 114.89, 140.66 59.85, 191.22 1.28 M48.42 170.53 C81.97 130.9, 116.72 90.77, 194.99 1.58 M49.21 171.66 C104.95 105.91, 161.06 41.18, 194.34 3.28 M52.18 174.04 C84.5 137.35, 117.15 97.48, 198.92 4.67 M52.9 173.36 C81.65 137.95, 112.22 101.89, 198.77 4.2 M56.09 175.95 C112.94 110.19, 167.87 47.01, 204.34 3.81 M56.7 174.54 C116.86 107.4, 175.73 38.41, 204.37 3.32 M58.88 176.62 C110.73 118.7, 166.03 56.93, 208.44 4.46 M59.46 177.94 C108.28 121.06, 158.54 63.48, 208.42 5.64 M61.28 179.9 C97.28 137.62, 135.24 96.22, 213.49 6.36 M63.31 178.7 C119.84 112.92, 176.66 49.16, 213.93 5.65 M67.45 179.48 C108.47 131.23, 150.42 80.5, 218.42 6.87 M66.62 180.24 C95.48 144.95, 126.4 109.63, 218.69 7.19 M70.87 183.69 C121.3 126.63, 172.21 65.33, 222.61 7.41 M69.44 182.74 C101.49 147.3, 132.3 112.14, 222.55 6.42 M72.63 184.6 C131.77 116.21, 191.8 49.38, 227.74 6.47 M73.12 184.97 C106.67 147.47, 138.18 111.05, 226.67 8.21 M78.29 185.71 C135.14 119.13, 193.05 51.01, 231.42 9.38 M78.1 186.08 C121.49 135.1, 166.7 81.99, 232.28 9.21 M79.57 187.3 C138.16 117.98, 198.8 48.4, 235.75 7.96 M80.83 188.26 C130.03 134.11, 178.47 78.09, 236.62 9.12 M84.93 190.35 C148.24 119, 207.69 48.56, 240.32 11.17 M84.97 190.13 C129.77 138.27, 174.43 88.19, 241.13 11.4 M88.56 191.39 C131.2 143.84, 172.61 93.61, 248.59 9.44 M88.91 192.03 C143.64 127.74, 197.68 63.82, 246.94 9.05 M92.19 192.02 C154.3 123.35, 213.23 56.99, 251.91 12.84 M93.33 191.68 C148.19 130.49, 203.45 68.24, 250.57 11.39 M98.88 192.19 C152.83 129.55, 205.85 64.84, 254.2 11.66 M98.38 192.93 C151.8 131.67, 206.46 68.89, 254.53 12.55 M102.66 194.87 C141.62 148.34, 183.94 100.98, 258.79 12.2 M102.54 194.92 C142.22 145.94, 185.19 97.56, 259.12 14.33 M107.1 194.94 C140.26 158.89, 173.04 120.8, 262.54 16.19 M106.22 196.47 C167.04 125.1, 227.3 55.74, 262.44 15.17 M112.96 195.71 C166.1 137.35, 217.51 77.06, 266.48 17.42 M111.86 197 C168.69 130.17, 226.02 65.15, 267.74 17.2 M117.39 197.49 C171.46 129.89, 229.65 65.38, 271.41 17.56 M114.92 197.3 C171.43 134.92, 224.52 72.62, 271.49 18.23 M121.55 196.95 C157.12 159.09, 191.35 117.34, 275.11 19.13 M120.64 198.38 C180.08 128, 240.52 60.18, 275.7 20.14 M123.18 199.1 C185.03 131.09, 245.67 61.39, 280.71 21.98 M124.98 198.82 C182.52 134.18, 239.11 67.84, 278.72 21.58 M127.61 200.38 C178.32 141.88, 230.23 85.19, 283.76 22.89 M128.09 200.83 C162.63 163.28, 193.65 126.24, 284.13 23.02 M132.9 200.93 C164.76 166.51, 196.66 128.61, 287.41 25.57 M132.97 201.13 C191.11 135.08, 248.36 69.51, 286.59 24.46 M136.83 201.83 C191.45 140.99, 247.12 80.43, 292.77 26.72 M138.2 202.9 C187.12 145.78, 235.86 89.09, 290.77 25.49 M142.84 203.26 C199 137.96, 254.85 74.17, 293.96 26.1 M142.19 202.46 C197.81 137.57, 253.45 72.48, 295.49 28.01 M148.92 203.2 C206.66 132.65, 266.82 64.71, 298.08 30.19 M148.11 202.79 C199.97 141.99, 252.23 80.89, 298.57 28.62 M152.22 203.84 C181.8 169.54, 211.42 133.06, 302 32.95 M153.4 203.38 C201.12 149.02, 248.36 93.22, 301.48 32.6 M159.47 204.98 C197.36 158.86, 236.09 113.24, 303.63 35.34 M157.49 203.36 C210.76 144.88, 262.64 85.25, 305.47 34.98 M163.02 201.74 C201.8 156.62, 239.55 112.31, 307.75 37.25 M163.65 203.1 C203.12 155.93, 244.3 110.02, 307.93 35.72 M170.07 204.69 C220.69 144.49, 272.99 83.4, 312.34 38.64 M167.82 203.16 C211.94 153.92, 253.82 104.85, 311.06 39.67 M174.08 203.01 C213.67 159.01, 251.46 112.74, 316.17 42.51 M173.21 204.19 C215.45 158.01, 255.59 111.21, 314.95 41.72 M180.83 202.06 C232.36 142.33, 285.71 81.2, 318.83 42.11 M179.09 204.13 C208.08 170.75, 235.78 137.97, 317.49 43.99 M184.03 203.68 C235.88 140.84, 291.91 78.21, 322.56 44.77 M184.34 203.23 C218.74 166.65, 250.35 128.44, 320.69 46.01 M190.62 205.66 C219.19 168.92, 251.19 133.92, 324.21 48.72 M189.05 204.94 C242.88 142.01, 295.25 80.2, 324.35 48.19 M196.13 202.79 C236.21 153.14, 280.79 105.54, 327.6 49.37 M194.66 203.29 C223.02 170.25, 253.38 135.96, 328.78 50.8 M202.1 202.56 C237.77 159.22, 274.81 114.77, 329.26 54.88 M200.88 203.39 C228.51 169.15, 258.17 136.74, 331.41 53.63 M206.28 203.48 C235.3 170.79, 262.5 137.55, 334.33 56.43 M207.36 201.34 C255.49 146.04, 304.16 89.18, 333.46 54.93 M210.85 201.86 C257.85 151.53, 302.51 100.37, 335.27 61.08 M212.15 201.46 C260.93 145.93, 308.03 93.19, 335.82 58.82 M218.2 201.61 C267.46 144.62, 313.66 90.82, 338.41 62.88 M218.22 200.14 C251.59 162.67, 284.38 125.73, 337.9 63.05 M225.39 200.98 C263.75 153.06, 301.94 107.58, 338.88 68.69 M224.79 200.14 C269.36 151.44, 312.75 102.01, 340.76 67.41 M231.08 198.06 C253.76 174.28, 277.82 145.39, 341.6 70.63 M230.24 198.54 C264.52 159.96, 297.58 121.8, 343.12 69.64 M234.61 197.41 C270.53 160.79, 304.37 122.01, 345.62 74.53 M236.26 198.86 C262.7 168.52, 288.94 137.72, 343.72 74.38 M243.51 198.79 C279.84 155.22, 317.03 114.81, 346.32 78.28 M243.39 198.22 C267.7 167.91, 293.22 137.79, 346.6 76.97 M249.92 194.33 C277.55 165.64, 306.58 132.07, 349.86 79.15 M250.48 196.03 C272.56 168.56, 297.36 138.78, 349.52 81.23 M258.86 192.96 C294.48 150.34, 329.93 110.69, 351.45 84.11 M256.94 192.85 C292.68 151.84, 329.28 111.28, 351.27 85.29 M265.26 188.9 C284.38 168.4, 299.97 149.72, 348.95 93.36 M264.85 190.35 C299.05 151.81, 332.03 115.1, 351.36 91.53 M274.17 185.49 C305.94 149.21, 336.45 116.12, 351.19 96.42 M273.21 185.66 C299.08 156.65, 325.54 127.11, 351.3 98.17 M283.16 182.76 C309.55 153.35, 338.42 119.24, 351.64 104.14 M281.34 184.32 C298.93 162.11, 316.93 140.69, 350.35 103.78 M289.93 182.01 C311.32 154.18, 329.38 132.54, 352.1 110.13 M290.49 179.39 C303.59 163.21, 318.79 146.11, 350.19 110.11 M295.96 175.78 C314.46 154.68, 330.79 136.13, 348.92 116.94 M298.64 176.91 C309.62 162.82, 323.31 149.12, 351.25 116.79 M316.69 161.02 C326.4 148.01, 340.05 137.26, 352.68 121.46 M314.56 163.44 C329.51 145.99, 344.25 129.6, 351.33 120.18" stroke="#fab005" stroke-width="0.5" fill="none"></path><path d="M192.09 0.05 C210.3 -0.46, 229.58 4.84, 246.81 9.33 C264.04 13.82, 281.35 19.6, 295.48 26.97 C309.61 34.33, 322.57 43.98, 331.58 53.52 C340.6 63.06, 346.62 73.33, 349.56 84.2 C352.51 95.06, 352.34 107.72, 349.24 118.71 C346.14 129.7, 339.58 140.44, 330.98 150.13 C322.38 159.82, 311.24 169.29, 297.64 176.83 C284.05 184.37, 266.8 191.13, 249.4 195.38 C232.01 199.63, 212.25 201.39, 193.27 202.34 C174.29 203.28, 153.89 203.23, 135.51 201.05 C117.14 198.86, 99.01 195.16, 83.03 189.24 C67.05 183.32, 51.56 174.27, 39.62 165.54 C27.68 156.81, 18.12 147.01, 11.37 136.86 C4.63 126.72, -0.33 115.45, -0.86 104.68 C-1.4 93.91, 2.52 82.56, 8.14 72.23 C13.76 61.9, 21.71 51.67, 32.87 42.68 C44.03 33.69, 59.38 24.63, 75.1 18.26 C90.82 11.9, 108.95 7.64, 127.17 4.49 C145.39 1.35, 170.6 -0.32, 184.43 -0.61 C198.25 -0.89, 203.21 1.73, 210.12 2.78 C217.02 3.83, 226.39 4.07, 225.86 5.7 M128.46 4.14 C144.84 -0.28, 167.42 -1.99, 186.54 -1.27 C205.66 -0.55, 225.66 3.85, 243.16 8.45 C260.66 13.06, 277.23 19.15, 291.55 26.35 C305.88 33.55, 319.66 42.31, 329.11 51.66 C338.56 61, 344.82 71.73, 348.24 82.43 C351.65 93.12, 352.19 105.08, 349.58 115.83 C346.96 126.57, 340.95 137.05, 332.54 146.92 C324.13 156.78, 312.37 167.24, 299.11 174.99 C285.84 182.74, 269.99 188.93, 252.94 193.4 C235.89 197.87, 215.58 200.4, 196.8 201.81 C178.03 203.22, 158.92 204.13, 140.3 201.87 C121.68 199.61, 101.55 193.88, 85.06 188.26 C68.58 182.65, 53.33 176.21, 41.39 168.18 C29.44 160.16, 20.15 150.3, 13.4 140.11 C6.64 129.92, 2.16 118.21, 0.87 107.03 C-0.42 95.86, 0.65 83.49, 5.66 73.09 C10.66 62.68, 19.69 53.33, 30.87 44.61 C42.05 35.89, 57.35 27.6, 72.73 20.75 C88.11 13.91, 113.56 6.31, 123.17 3.55 C132.77 0.79, 129.26 3.97, 130.36 4.2 C131.45 4.42, 128.87 3.57, 129.71 4.93" stroke="#e67700" stroke-width="1" fill="none"></path></g><g transform="translate(1187.152957318276 312.9296875) rotate(0 40.5 12.5)"><text x="0" y="18" font-family="Virgil, Segoe UI Emoji" font-size="20px" fill="#e67700" text-anchor="start" style="white-space: pre;" direction="ltr">Firebase</text></g><g stroke-linecap="round"><g transform="translate(237.7232698182762 196.63490576545257) rotate(0 99.34535510167478 66.48805866083234)"><path d="M-1 0.94 C32.28 23.04, 166.49 110.67, 199.69 132.59 M0.68 0.38 C33.82 22.11, 165.6 108.39, 198.9 130.65" stroke="#c92a2a" stroke-width="1" fill="none"></path></g><g transform="translate(237.7232698182762 196.63490576545257) rotate(0 99.34535510167478 66.48805866083234)"><path d="M171.29 124.18 C179.15 124.1, 187.86 126.6, 197.69 131.71 M169.68 122.93 C175.63 124.42, 183.59 127.34, 198.12 130.54" stroke="#c92a2a" stroke-width="1" fill="none"></path></g><g transform="translate(237.7232698182762 196.63490576545257) rotate(0 99.34535510167478 66.48805866083234)"><path d="M182.6 107.06 C187.02 112.08, 192.3 119.79, 197.69 131.71 M180.99 105.81 C184.19 111.45, 189.48 118.41, 198.12 130.54" stroke="#c92a2a" stroke-width="1" fill="none"></path></g></g><g stroke-linecap="round"><g transform="translate(243.1319176895803 549.6708356967729) rotate(0 99.02495480971248 -29.783741866739263)"><path d="M0.32 -0.77 C32.95 -10.99, 163.66 -50.89, 196.7 -61 M-0.97 1.43 C31.96 -8.65, 165.79 -49.39, 199.02 -59.74" stroke="#c92a2a" stroke-width="1" fill="none"></path></g><g transform="translate(243.1319176895803 549.6708356967729) rotate(0 99.02495480971248 -29.783741866739263)"><path d="M173.8 -42.9 C183.21 -46.65, 191.52 -55.17, 198.9 -61.29 M175.04 -41.53 C180.01 -45.16, 187.32 -51.2, 198.22 -59.02" stroke="#c92a2a" stroke-width="1" fill="none"></path></g><g transform="translate(243.1319176895803 549.6708356967729) rotate(0 99.02495480971248 -29.783741866739263)"><path d="M167.77 -62.51 C179.51 -58.88, 190.09 -59.99, 198.9 -61.29 M169.01 -61.15 C175.38 -60.19, 184.11 -61.63, 198.22 -59.02" stroke="#c92a2a" stroke-width="1" fill="none"></path></g></g><g transform="translate(472.5396760682762 242.484375) rotate(0 98.5 9.5)"><text x="0" y="15" font-family="Cascadia, Segoe UI Emoji" font-size="16px" fill="#495057" text-anchor="start" style="white-space: pre;" direction="ltr">_core/auth.service.ts</text></g><g transform="translate(69.62951981827621 81.38671875) rotate(0 61 9.5)"><text x="0" y="15" font-family="Cascadia, Segoe UI Emoji" font-size="16px" fill="#495057" text-anchor="start" style="white-space: pre;" direction="ltr">login.page.ts</text></g><g transform="translate(46.49280106827621 469.98046875) rotate(0 75 9.5)"><text x="0" y="15" font-family="Cascadia, Segoe UI Emoji" font-size="16px" fill="#495057" text-anchor="start" style="white-space: pre;" direction="ltr">register.page.ts</text></g><g stroke-linecap="round"><g transform="translate(949.8432360233468 313.8687108437382) rotate(0 59.39410039572283 -1.702732242557346)"><path d="M-0.38 0.23 C19.47 -0.28, 99.43 -3.06, 119.16 -3.64 M1.63 -0.69 C21.34 -0.94, 99.24 -1.27, 118.46 -2.03" stroke="#c92a2a" stroke-width="1" fill="none"></path></g><g transform="translate(949.8432360233468 313.8687108437382) rotate(0 59.39410039572283 -1.702732242557346)"><path d="M90.86 9.55 C99.41 4.44, 108.78 0.81, 119.25 -3.97 M90.36 8.62 C98.99 5.25, 106.22 1.63, 117.56 -1.14" stroke="#c92a2a" stroke-width="1" fill="none"></path></g><g transform="translate(949.8432360233468 313.8687108437382) rotate(0 59.39410039572283 -1.702732242557346)"><path d="M90.47 -10.97 C99.04 -9.73, 108.53 -7.01, 119.25 -3.97 M89.96 -11.9 C98.89 -9.19, 106.24 -6.73, 117.56 -1.14" stroke="#c92a2a" stroke-width="1" fill="none"></path></g></g><g transform="translate(30.067019818276208 162.57421875) rotate(0 103 28.5)"><text x="0" y="15" font-family="Cascadia, Segoe UI Emoji" font-size="16px" fill="#495057" text-anchor="start" style="white-space: pre;" direction="ltr">loginFormSubmit() {</text><text x="0" y="34" font-family="Cascadia, Segoe UI Emoji" font-size="16px" fill="#495057" text-anchor="start" style="white-space: pre;" direction="ltr">  this.authService.XXX</text><text x="0" y="53" font-family="Cascadia, Segoe UI Emoji" font-size="16px" fill="#495057" text-anchor="start" style="white-space: pre;" direction="ltr">}</text></g><g transform="translate(16.227176068276208 544.3125) rotate(0 103 28.5)"><text x="0" y="15" font-family="Cascadia, Segoe UI Emoji" font-size="16px" fill="#495057" text-anchor="start" style="white-space: pre;" direction="ltr">registerFormSubmit() {</text><text x="0" y="34" font-family="Cascadia, Segoe UI Emoji" font-size="16px" fill="#495057" text-anchor="start" style="white-space: pre;" direction="ltr">  this.authService.XXX</text><text x="0" y="53" font-family="Cascadia, Segoe UI Emoji" font-size="16px" fill="#495057" text-anchor="start" style="white-space: pre;" direction="ltr">}</text></g><g stroke-linecap="round"><g transform="translate(23.367801068276208 109.30078125) rotate(0 110.23145917866378 -1.1640451084822416)"><path d="M0.56 0.23 C37.38 -0.34, 184.12 -2.11, 221.07 -2.56 M-0.61 -0.7 C36.04 -1.22, 182.98 -1.39, 220.09 -1.53" stroke="#495057" stroke-width="1" fill="none"></path></g></g><g stroke-linecap="round"><g transform="translate(10.024051068276208 498.099609375) rotate(0 110.92584919486194 -1.1349506508558989)"><path d="M0.94 0.19 C38.09 -0.29, 184.98 -2.05, 221.88 -2.46 M-0.02 -0.75 C37.13 -1.15, 184.29 -1.29, 221.32 -1.39" stroke="#495057" stroke-width="1" fill="none"></path></g></g><g transform="translate(448.8013948182762 321.08203125) rotate(0 239 104.5)"><text x="0" y="15" font-family="Cascadia, Segoe UI Emoji" font-size="16px" fill="#495057" text-anchor="start" style="white-space: pre;" direction="ltr">async loginWithEmailAndPassword (user: User) {</text><text x="0" y="34" font-family="Cascadia, Segoe UI Emoji" font-size="16px" fill="#495057" text-anchor="start" style="white-space: pre;" direction="ltr">    this.afAuth.XXXX    </text><text x="0" y="53" font-family="Cascadia, Segoe UI Emoji" font-size="16px" fill="#495057" text-anchor="start" style="white-space: pre;" direction="ltr">}</text><text x="0" y="72" font-family="Cascadia, Segoe UI Emoji" font-size="16px" fill="#495057" text-anchor="start" style="white-space: pre;" direction="ltr"></text><text x="0" y="91" font-family="Cascadia, Segoe UI Emoji" font-size="16px" fill="#495057" text-anchor="start" style="white-space: pre;" direction="ltr"></text><text x="0" y="110" font-family="Cascadia, Segoe UI Emoji" font-size="16px" fill="#495057" text-anchor="start" style="white-space: pre;" direction="ltr"></text><text x="0" y="129" font-family="Cascadia, Segoe UI Emoji" font-size="16px" fill="#495057" text-anchor="start" style="white-space: pre;" direction="ltr"></text><text x="0" y="148" font-family="Cascadia, Segoe UI Emoji" font-size="16px" fill="#495057" text-anchor="start" style="white-space: pre;" direction="ltr"></text><text x="0" y="167" font-family="Cascadia, Segoe UI Emoji" font-size="16px" fill="#495057" text-anchor="start" style="white-space: pre;" direction="ltr">async createUserWithEmailAndPassword (user: User) {</text><text x="0" y="186" font-family="Cascadia, Segoe UI Emoji" font-size="16px" fill="#495057" text-anchor="start" style="white-space: pre;" direction="ltr">    this.afAuth.XXX</text><text x="0" y="205" font-family="Cascadia, Segoe UI Emoji" font-size="16px" fill="#495057" text-anchor="start" style="white-space: pre;" direction="ltr">}</text></g><g transform="translate(20.051394818276208 515.11328125) rotate(0 14 9.5)"><text x="0" y="15" font-family="Cascadia, Segoe UI Emoji" font-size="16px" fill="#495057" text-anchor="start" style="white-space: pre;" direction="ltr">...</text></g><g transform="translate(29.848269818276208 132.62109375) rotate(0 14 9.5)"><text x="0" y="15" font-family="Cascadia, Segoe UI Emoji" font-size="16px" fill="#495057" text-anchor="start" style="white-space: pre;" direction="ltr">...</text></g><g transform="translate(979.2584260682762 317.1640625) rotate(0 56.5 9.5)"><text x="0" y="15" font-family="Cascadia, Segoe UI Emoji" font-size="16px" fill="#495057" text-anchor="start" style="white-space: pre;" direction="ltr">verbindet zu</text></g></svg>